<svg xmlns="http://www.w3.org/2000/svg" xmlns:xlink="http://www.w3.org/1999/xlink" width="400" zoomAndPan="magnify" viewBox="0 0 300 97.5" height="130" preserveAspectRatio="xMidYMid meet" version="1.0"><defs><g/><clipPath id="97d136a54b"><path d="M 6.417969 6.097656 L 80.289062 6.097656 L 80.289062 91.164062 L 6.417969 91.164062 Z M 6.417969 6.097656 " clip-rule="nonzero"/></clipPath><clipPath id="a07fc29fce"><path d="M 43.726562 27.421875 L 80.289062 27.421875 L 80.289062 69.207031 L 43.726562 69.207031 Z M 43.726562 27.421875 " clip-rule="nonzero"/></clipPath><clipPath id="fc22b703d3"><path d="M 6.914062 27.421875 L 43.476562 27.421875 L 43.476562 69.207031 L 6.914062 69.207031 Z M 6.914062 27.421875 " clip-rule="nonzero"/></clipPath><clipPath id="fd8b3e2ca7"><path d="M 43 6 L 80 6 L 80 49 L 43 49 Z M 43 6 " clip-rule="nonzero"/></clipPath><clipPath id="32c0814ab2"><path d="M 43.660156 6.105469 L 79.789062 27.097656 L 61.417969 58.710938 L 25.289062 37.71875 Z M 43.660156 6.105469 " clip-rule="nonzero"/></clipPath><clipPath id="941ae9eb9a"><path d="M 6 48 L 44 48 L 44 91 L 6 91 Z M 6 48 " clip-rule="nonzero"/></clipPath><clipPath id="fb1deb4b44"><path d="M 25.164062 37.9375 L 61.9375 59.304688 L 43.570312 90.917969 L 6.792969 69.550781 Z M 25.164062 37.9375 " clip-rule="nonzero"/></clipPath><clipPath id="c09a84b6c1"><path d="M 43 48 L 81 48 L 81 91 L 43 91 Z M 43 48 " clip-rule="nonzero"/></clipPath><clipPath id="650243fd47"><path d="M 80.03125 69.9375 L 43.800781 90.753906 L 25.582031 59.050781 L 61.816406 38.234375 Z M 80.03125 69.9375 " clip-rule="nonzero"/></clipPath><clipPath id="26f2dc7e5a"><path d="M 7 6 L 44 6 L 44 49 L 7 49 Z M 7 6 " clip-rule="nonzero"/></clipPath><clipPath id="e06a85489b"><path d="M 61.484375 38.019531 L 25.253906 58.835938 L 7.035156 27.132812 L 43.265625 6.316406 Z M 61.484375 38.019531 " clip-rule="nonzero"/></clipPath></defs><g clip-path="url(#97d136a54b)"><path fill="#dcedc5" d="M 43.355469 91.15625 L 6.417969 69.476562 L 6.417969 27.785156 L 43.355469 6.105469 L 80.289062 27.785156 L 80.289062 69.476562 L 43.355469 91.15625 " fill-opacity="1" fill-rule="nonzero"/></g><g clip-path="url(#a07fc29fce)"><path fill="#dcedc5" d="M 43.726562 48.3125 L 80.289062 69.207031 L 80.289062 27.421875 L 43.726562 48.3125 " fill-opacity="1" fill-rule="nonzero"/></g><g clip-path="url(#fc22b703d3)"><path fill="#b9dc8b" d="M 43.476562 48.3125 L 6.914062 69.207031 L 6.914062 27.421875 L 43.476562 48.3125 " fill-opacity="1" fill-rule="nonzero"/></g><g clip-path="url(#fd8b3e2ca7)"><g clip-path="url(#32c0814ab2)"><path fill="#dcedc5" d="M 43.355469 48.214844 L 79.789062 27.097656 L 43.660156 6.105469 L 43.355469 48.214844 " fill-opacity="1" fill-rule="nonzero"/></g></g><g clip-path="url(#941ae9eb9a)"><g clip-path="url(#fb1deb4b44)"><path fill="#8ac53f" d="M 43.550781 48.621094 L 43.570312 90.914062 L 6.796875 69.546875 L 43.550781 48.621094 " fill-opacity="1" fill-rule="nonzero"/></g></g><g clip-path="url(#c09a84b6c1)"><g clip-path="url(#650243fd47)"><path fill="#8ac53f" d="M 43.699219 48.644531 L 43.800781 90.753906 L 80.03125 69.9375 L 43.699219 48.644531 " fill-opacity="1" fill-rule="nonzero"/></g></g><g clip-path="url(#26f2dc7e5a)"><g clip-path="url(#e06a85489b)"><path fill="#dcedc5" d="M 43.367188 48.425781 L 7.035156 27.132812 L 43.265625 6.316406 L 43.367188 48.425781 " fill-opacity="1" fill-rule="nonzero"/></g></g><g fill="#000000" fill-opacity="1"><g transform="translate(95.397439, 57.57782)"><g><path d="M 12.5 0.171875 C 10.425781 0.171875 8.554688 -0.285156 6.890625 -1.203125 C 5.222656 -2.117188 3.914062 -3.390625 2.96875 -5.015625 C 2.03125 -6.640625 1.5625 -8.457031 1.5625 -10.46875 C 1.5625 -12.476562 2.03125 -14.296875 2.96875 -15.921875 C 3.914062 -17.546875 5.226562 -18.816406 6.90625 -19.734375 C 8.582031 -20.648438 10.457031 -21.109375 12.53125 -21.109375 C 14.082031 -21.109375 15.515625 -20.847656 16.828125 -20.328125 C 18.148438 -19.816406 19.269531 -19.0625 20.1875 -18.0625 L 18.78125 -16.65625 C 17.144531 -18.3125 15.082031 -19.140625 12.59375 -19.140625 C 10.9375 -19.140625 9.429688 -18.757812 8.078125 -18 C 6.722656 -17.238281 5.660156 -16.203125 4.890625 -14.890625 C 4.117188 -13.578125 3.734375 -12.101562 3.734375 -10.46875 C 3.734375 -8.832031 4.117188 -7.351562 4.890625 -6.03125 C 5.660156 -4.71875 6.722656 -3.679688 8.078125 -2.921875 C 9.429688 -2.171875 10.9375 -1.796875 12.59375 -1.796875 C 15.101562 -1.796875 17.164062 -2.632812 18.78125 -4.3125 L 20.1875 -2.90625 C 19.269531 -1.90625 18.144531 -1.140625 16.8125 -0.609375 C 15.488281 -0.0859375 14.050781 0.171875 12.5 0.171875 Z M 12.5 0.171875 "/></g></g></g><g fill="#000000" fill-opacity="1"><g transform="translate(116.90277, 57.57782)"><g><path d="M 9.390625 0.15625 C 7.878906 0.15625 6.515625 -0.1875 5.296875 -0.875 C 4.078125 -1.5625 3.117188 -2.515625 2.421875 -3.734375 C 1.722656 -4.953125 1.375 -6.328125 1.375 -7.859375 C 1.375 -9.398438 1.722656 -10.773438 2.421875 -11.984375 C 3.117188 -13.203125 4.078125 -14.148438 5.296875 -14.828125 C 6.515625 -15.503906 7.878906 -15.84375 9.390625 -15.84375 C 10.898438 -15.84375 12.265625 -15.503906 13.484375 -14.828125 C 14.703125 -14.148438 15.65625 -13.203125 16.34375 -11.984375 C 17.03125 -10.773438 17.375 -9.398438 17.375 -7.859375 C 17.375 -6.328125 17.03125 -4.953125 16.34375 -3.734375 C 15.65625 -2.515625 14.703125 -1.5625 13.484375 -0.875 C 12.265625 -0.1875 10.898438 0.15625 9.390625 0.15625 Z M 9.390625 -1.734375 C 10.503906 -1.734375 11.503906 -1.988281 12.390625 -2.5 C 13.285156 -3.007812 13.976562 -3.734375 14.46875 -4.671875 C 14.96875 -5.609375 15.21875 -6.671875 15.21875 -7.859375 C 15.21875 -9.054688 14.96875 -10.125 14.46875 -11.0625 C 13.976562 -12 13.285156 -12.722656 12.390625 -13.234375 C 11.503906 -13.742188 10.503906 -14 9.390625 -14 C 8.273438 -14 7.269531 -13.742188 6.375 -13.234375 C 5.488281 -12.722656 4.789062 -12 4.28125 -11.0625 C 3.78125 -10.125 3.53125 -9.054688 3.53125 -7.859375 C 3.53125 -6.671875 3.78125 -5.609375 4.28125 -4.671875 C 4.789062 -3.734375 5.488281 -3.007812 6.375 -2.5 C 7.269531 -1.988281 8.273438 -1.734375 9.390625 -1.734375 Z M 9.390625 -1.734375 "/></g></g></g><g fill="#000000" fill-opacity="1"><g transform="translate(135.656384, 57.57782)"><g><path d="M 22.578125 -15.84375 C 24.554688 -15.84375 26.109375 -15.273438 27.234375 -14.140625 C 28.359375 -13.003906 28.921875 -11.332031 28.921875 -9.125 L 28.921875 0 L 26.796875 0 L 26.796875 -8.90625 C 26.796875 -10.539062 26.398438 -11.785156 25.609375 -12.640625 C 24.828125 -13.503906 23.71875 -13.9375 22.28125 -13.9375 C 20.644531 -13.9375 19.359375 -13.429688 18.421875 -12.421875 C 17.484375 -11.421875 17.015625 -10.03125 17.015625 -8.25 L 17.015625 0 L 14.890625 0 L 14.890625 -8.90625 C 14.890625 -10.539062 14.492188 -11.785156 13.703125 -12.640625 C 12.921875 -13.503906 11.800781 -13.9375 10.34375 -13.9375 C 8.726562 -13.9375 7.445312 -13.429688 6.5 -12.421875 C 5.550781 -11.421875 5.078125 -10.03125 5.078125 -8.25 L 5.078125 0 L 2.953125 0 L 2.953125 -15.734375 L 5 -15.734375 L 5 -12.859375 C 5.550781 -13.816406 6.328125 -14.550781 7.328125 -15.0625 C 8.328125 -15.582031 9.472656 -15.84375 10.765625 -15.84375 C 12.078125 -15.84375 13.21875 -15.5625 14.1875 -15 C 15.15625 -14.445312 15.878906 -13.625 16.359375 -12.53125 C 16.929688 -13.5625 17.757812 -14.367188 18.84375 -14.953125 C 19.9375 -15.546875 21.179688 -15.84375 22.578125 -15.84375 Z M 22.578125 -15.84375 "/></g></g></g><g fill="#000000" fill-opacity="1"><g transform="translate(167.390964, 57.57782)"><g><path d="M 22.578125 -15.84375 C 24.554688 -15.84375 26.109375 -15.273438 27.234375 -14.140625 C 28.359375 -13.003906 28.921875 -11.332031 28.921875 -9.125 L 28.921875 0 L 26.796875 0 L 26.796875 -8.90625 C 26.796875 -10.539062 26.398438 -11.785156 25.609375 -12.640625 C 24.828125 -13.503906 23.71875 -13.9375 22.28125 -13.9375 C 20.644531 -13.9375 19.359375 -13.429688 18.421875 -12.421875 C 17.484375 -11.421875 17.015625 -10.03125 17.015625 -8.25 L 17.015625 0 L 14.890625 0 L 14.890625 -8.90625 C 14.890625 -10.539062 14.492188 -11.785156 13.703125 -12.640625 C 12.921875 -13.503906 11.800781 -13.9375 10.34375 -13.9375 C 8.726562 -13.9375 7.445312 -13.429688 6.5 -12.421875 C 5.550781 -11.421875 5.078125 -10.03125 5.078125 -8.25 L 5.078125 0 L 2.953125 0 L 2.953125 -15.734375 L 5 -15.734375 L 5 -12.859375 C 5.550781 -13.816406 6.328125 -14.550781 7.328125 -15.0625 C 8.328125 -15.582031 9.472656 -15.84375 10.765625 -15.84375 C 12.078125 -15.84375 13.21875 -15.5625 14.1875 -15 C 15.15625 -14.445312 15.878906 -13.625 16.359375 -12.53125 C 16.929688 -13.5625 17.757812 -14.367188 18.84375 -14.953125 C 19.9375 -15.546875 21.179688 -15.84375 22.578125 -15.84375 Z M 22.578125 -15.84375 "/></g></g></g><g fill="#000000" fill-opacity="1"><g transform="translate(199.125544, 57.57782)"><g><path d="M 17.140625 -15.734375 L 17.140625 0 L 15.109375 0 L 15.109375 -2.875 C 14.546875 -1.914062 13.773438 -1.171875 12.796875 -0.640625 C 11.816406 -0.109375 10.703125 0.15625 9.453125 0.15625 C 7.398438 0.15625 5.78125 -0.414062 4.59375 -1.5625 C 3.40625 -2.71875 2.8125 -4.398438 2.8125 -6.609375 L 2.8125 -15.734375 L 4.9375 -15.734375 L 4.9375 -6.8125 C 4.9375 -5.164062 5.34375 -3.910156 6.15625 -3.046875 C 6.976562 -2.191406 8.144531 -1.765625 9.65625 -1.765625 C 11.3125 -1.765625 12.617188 -2.265625 13.578125 -3.265625 C 14.535156 -4.273438 15.015625 -5.679688 15.015625 -7.484375 L 15.015625 -15.734375 Z M 12.140625 -21.890625 L 14.96875 -21.890625 L 10.125 -18.1875 L 8.03125 -18.1875 Z M 12.140625 -21.890625 "/></g></g></g><g fill="#000000" fill-opacity="1"><g transform="translate(219.255016, 57.57782)"><g><path d="M 11.25 -0.953125 C 10.84375 -0.597656 10.34375 -0.320312 9.75 -0.125 C 9.164062 0.0625 8.554688 0.15625 7.921875 0.15625 C 6.453125 0.15625 5.316406 -0.242188 4.515625 -1.046875 C 3.710938 -1.847656 3.3125 -2.972656 3.3125 -4.421875 L 3.3125 -13.9375 L 0.515625 -13.9375 L 0.515625 -15.734375 L 3.3125 -15.734375 L 3.3125 -19.171875 L 5.4375 -19.171875 L 5.4375 -15.734375 L 10.234375 -15.734375 L 10.234375 -13.9375 L 5.4375 -13.9375 L 5.4375 -4.546875 C 5.4375 -3.609375 5.671875 -2.894531 6.140625 -2.40625 C 6.609375 -1.914062 7.285156 -1.671875 8.171875 -1.671875 C 8.609375 -1.671875 9.03125 -1.738281 9.4375 -1.875 C 9.84375 -2.019531 10.195312 -2.222656 10.5 -2.484375 Z M 11.25 -0.953125 "/></g></g></g><g fill="#000000" fill-opacity="1"><g transform="translate(231.398509, 57.57782)"><g><path d="M 2.953125 -15.734375 L 5.078125 -15.734375 L 5.078125 0 L 2.953125 0 Z M 4.046875 -19.171875 C 3.609375 -19.171875 3.238281 -19.316406 2.9375 -19.609375 C 2.632812 -19.910156 2.484375 -20.269531 2.484375 -20.6875 C 2.484375 -21.09375 2.632812 -21.441406 2.9375 -21.734375 C 3.238281 -22.035156 3.609375 -22.1875 4.046875 -22.1875 C 4.484375 -22.1875 4.847656 -22.039062 5.140625 -21.75 C 5.441406 -21.46875 5.59375 -21.125 5.59375 -20.71875 C 5.59375 -20.28125 5.441406 -19.910156 5.140625 -19.609375 C 4.847656 -19.316406 4.484375 -19.171875 4.046875 -19.171875 Z M 4.046875 -19.171875 "/></g></g></g><g fill="#000000" fill-opacity="1"><g transform="translate(239.444319, 57.57782)"><g><path d="M 8.171875 -20.546875 C 7.242188 -20.546875 6.546875 -20.296875 6.078125 -19.796875 C 5.617188 -19.296875 5.390625 -18.554688 5.390625 -17.578125 L 5.390625 -15.734375 L 10.234375 -15.734375 L 10.234375 -13.9375 L 5.4375 -13.9375 L 5.4375 0 L 3.3125 0 L 3.3125 -13.9375 L 0.515625 -13.9375 L 0.515625 -15.734375 L 3.3125 -15.734375 L 3.3125 -17.671875 C 3.3125 -19.109375 3.722656 -20.242188 4.546875 -21.078125 C 5.378906 -21.921875 6.554688 -22.34375 8.078125 -22.34375 C 8.671875 -22.34375 9.242188 -22.253906 9.796875 -22.078125 C 10.359375 -21.910156 10.832031 -21.671875 11.21875 -21.359375 L 10.5 -19.765625 C 9.875 -20.285156 9.097656 -20.546875 8.171875 -20.546875 Z M 8.171875 -20.546875 "/></g></g></g><g fill="#000000" fill-opacity="1"><g transform="translate(249.583843, 57.57782)"><g><path d="M 16.171875 -15.734375 L 8.3125 1.890625 C 7.675781 3.359375 6.9375 4.398438 6.09375 5.015625 C 5.257812 5.640625 4.253906 5.953125 3.078125 5.953125 C 2.316406 5.953125 1.609375 5.832031 0.953125 5.59375 C 0.296875 5.351562 -0.269531 4.992188 -0.75 4.515625 L 0.234375 2.9375 C 1.035156 3.726562 1.992188 4.125 3.109375 4.125 C 3.828125 4.125 4.441406 3.925781 4.953125 3.53125 C 5.460938 3.132812 5.9375 2.457031 6.375 1.5 L 7.0625 -0.03125 L 0.03125 -15.734375 L 2.25 -15.734375 L 8.171875 -2.359375 L 14.078125 -15.734375 Z M 16.171875 -15.734375 "/></g></g></g></svg>