<svg xmlns="http://www.w3.org/2000/svg" xmlns:xlink="http://www.w3.org/1999/xlink" width="150" zoomAndPan="magnify" viewBox="0 0 112.5 60" height="80" preserveAspectRatio="xMidYMid meet" version="1.0"><defs><g/><clipPath id="ddc2f0d437"><path d="M 1.03125 14.125 L 25.03125 14.125 L 25.03125 41.875 L 1.03125 41.875 Z M 1.03125 14.125 " clip-rule="nonzero"/></clipPath><clipPath id="808544407e"><path d="M 1.0625 21.035156 L 13.0625 21.035156 L 13.0625 34.535156 L 1.0625 34.535156 Z M 1.0625 21.035156 " clip-rule="nonzero"/></clipPath><clipPath id="1f4bb9080b"><path d="M 1 27 L 13 27 L 13 42 L 1 42 Z M 1 27 " clip-rule="nonzero"/></clipPath><clipPath id="052168a472"><path d="M 7.082031 24.457031 L 18.738281 31.269531 L 12.683594 41.628906 L 1.027344 34.820312 Z M 7.082031 24.457031 " clip-rule="nonzero"/></clipPath><clipPath id="fd3e75b4e4"><path d="M 7.082031 24.457031 L 18.738281 31.269531 L 12.683594 41.628906 L 1.027344 34.820312 Z M 7.082031 24.457031 " clip-rule="nonzero"/></clipPath><clipPath id="eb874ae87b"><path d="M 12 27 L 25 27 L 25 42 L 12 42 Z M 12 27 " clip-rule="nonzero"/></clipPath><clipPath id="7ace7c41b8"><path d="M 13.113281 27.9375 L 24.765625 34.75 L 18.710938 45.109375 L 7.058594 38.296875 Z M 13.113281 27.9375 " clip-rule="nonzero"/></clipPath><clipPath id="812389613f"><path d="M 7.082031 38.257812 L 18.734375 45.070312 L 24.792969 34.710938 L 13.136719 27.898438 Z M 7.082031 38.257812 " clip-rule="nonzero"/></clipPath><clipPath id="06e8962477"><path d="M 8.421875 34.242188 L 17.421875 34.242188 L 17.421875 41.742188 L 8.421875 41.742188 Z M 8.421875 34.242188 " clip-rule="nonzero"/></clipPath></defs><g clip-path="url(#ddc2f0d437)"><path fill="#dcedc5" d="M 13.027344 41.875 L 1.03125 34.9375 L 1.03125 21.0625 L 13.027344 14.125 L 25.023438 21.0625 L 25.023438 34.9375 Z M 13.027344 41.875 " fill-opacity="1" fill-rule="nonzero"/></g><g clip-path="url(#808544407e)"><path fill="#b9dc8b" d="M 1.066406 21.035156 L 13.058594 27.785156 L 1.066406 34.535156 Z M 1.066406 21.035156 " fill-opacity="1" fill-rule="nonzero"/></g><g clip-path="url(#1f4bb9080b)"><g clip-path="url(#052168a472)"><g clip-path="url(#fd3e75b4e4)"><path fill="#8ac53f" d="M 1.027344 34.820312 L 12.910156 27.863281 L 12.683594 41.628906 Z M 1.027344 34.820312 " fill-opacity="1" fill-rule="nonzero"/></g></g></g><g clip-path="url(#eb874ae87b)"><g clip-path="url(#7ace7c41b8)"><g clip-path="url(#812389613f)"><path fill="#8ac53f" d="M 13.136719 27.898438 L 12.910156 41.664062 L 24.789062 34.707031 Z M 13.136719 27.898438 " fill-opacity="1" fill-rule="nonzero"/></g></g></g><path stroke-linecap="round" transform="matrix(0.000000000000000047, -0.766637, 0.75, 0.000000000000000046, 12.688455, 41.14961)" fill="none" stroke-linejoin="miter" d="M 0.500869 0.498727 L 17.121755 0.498727 " stroke="#8ac53f" stroke-width="1" stroke-opacity="1" stroke-miterlimit="4"/><g fill="#000000" fill-opacity="1"><g transform="translate(32.331036, 32.438167)"><g><path d="M 5.6875 0.109375 C 4.738281 0.109375 3.878906 -0.0976562 3.109375 -0.515625 C 2.335938 -0.941406 1.734375 -1.523438 1.296875 -2.265625 C 0.867188 -3.003906 0.65625 -3.835938 0.65625 -4.765625 C 0.65625 -5.691406 0.867188 -6.523438 1.296875 -7.265625 C 1.734375 -8.003906 2.335938 -8.582031 3.109375 -9 C 3.878906 -9.425781 4.742188 -9.640625 5.703125 -9.640625 C 6.441406 -9.640625 7.117188 -9.515625 7.734375 -9.265625 C 8.359375 -9.015625 8.890625 -8.644531 9.328125 -8.15625 L 8.4375 -7.296875 C 7.71875 -8.046875 6.820312 -8.421875 5.75 -8.421875 C 5.039062 -8.421875 4.398438 -8.257812 3.828125 -7.9375 C 3.265625 -7.625 2.820312 -7.1875 2.5 -6.625 C 2.175781 -6.070312 2.015625 -5.453125 2.015625 -4.765625 C 2.015625 -4.078125 2.175781 -3.453125 2.5 -2.890625 C 2.820312 -2.335938 3.265625 -1.898438 3.828125 -1.578125 C 4.398438 -1.265625 5.039062 -1.109375 5.75 -1.109375 C 6.8125 -1.109375 7.707031 -1.488281 8.4375 -2.25 L 9.328125 -1.390625 C 8.890625 -0.898438 8.359375 -0.523438 7.734375 -0.265625 C 7.117188 -0.015625 6.4375 0.109375 5.6875 0.109375 Z M 5.6875 0.109375 "/></g></g></g><g fill="#000000" fill-opacity="1"><g transform="translate(42.168236, 32.438167)"><g><path d="M 4.328125 0.078125 C 3.609375 0.078125 2.960938 -0.078125 2.390625 -0.390625 C 1.816406 -0.710938 1.367188 -1.148438 1.046875 -1.703125 C 0.734375 -2.265625 0.578125 -2.898438 0.578125 -3.609375 C 0.578125 -4.316406 0.734375 -4.945312 1.046875 -5.5 C 1.367188 -6.0625 1.816406 -6.5 2.390625 -6.8125 C 2.960938 -7.125 3.609375 -7.28125 4.328125 -7.28125 C 5.046875 -7.28125 5.6875 -7.125 6.25 -6.8125 C 6.820312 -6.5 7.269531 -6.0625 7.59375 -5.5 C 7.914062 -4.945312 8.078125 -4.316406 8.078125 -3.609375 C 8.078125 -2.898438 7.914062 -2.265625 7.59375 -1.703125 C 7.269531 -1.148438 6.820312 -0.710938 6.25 -0.390625 C 5.6875 -0.078125 5.046875 0.078125 4.328125 0.078125 Z M 4.328125 -1.0625 C 4.785156 -1.0625 5.195312 -1.164062 5.5625 -1.375 C 5.9375 -1.59375 6.226562 -1.894531 6.4375 -2.28125 C 6.644531 -2.664062 6.75 -3.109375 6.75 -3.609375 C 6.75 -4.109375 6.644531 -4.550781 6.4375 -4.9375 C 6.226562 -5.320312 5.9375 -5.617188 5.5625 -5.828125 C 5.195312 -6.035156 4.785156 -6.140625 4.328125 -6.140625 C 3.867188 -6.140625 3.453125 -6.035156 3.078125 -5.828125 C 2.710938 -5.617188 2.421875 -5.320312 2.203125 -4.9375 C 1.992188 -4.550781 1.890625 -4.109375 1.890625 -3.609375 C 1.890625 -3.109375 1.992188 -2.664062 2.203125 -2.28125 C 2.421875 -1.894531 2.710938 -1.59375 3.078125 -1.375 C 3.453125 -1.164062 3.867188 -1.0625 4.328125 -1.0625 Z M 4.328125 -1.0625 "/></g></g></g><g fill="#000000" fill-opacity="1"><g transform="translate(50.8081, 32.438167)"><g><path d="M 10.265625 -7.28125 C 11.171875 -7.28125 11.890625 -7.015625 12.421875 -6.484375 C 12.953125 -5.960938 13.21875 -5.1875 13.21875 -4.15625 L 13.21875 0 L 11.90625 0 L 11.90625 -4 C 11.90625 -4.695312 11.742188 -5.222656 11.421875 -5.578125 C 11.097656 -5.929688 10.640625 -6.109375 10.046875 -6.109375 C 9.378906 -6.109375 8.847656 -5.898438 8.453125 -5.484375 C 8.066406 -5.078125 7.875 -4.488281 7.875 -3.71875 L 7.875 0 L 6.578125 0 L 6.578125 -4 C 6.578125 -4.695312 6.414062 -5.222656 6.09375 -5.578125 C 5.769531 -5.929688 5.304688 -6.109375 4.703125 -6.109375 C 4.046875 -6.109375 3.519531 -5.898438 3.125 -5.484375 C 2.738281 -5.078125 2.546875 -4.488281 2.546875 -3.71875 L 2.546875 0 L 1.234375 0 L 1.234375 -7.21875 L 2.484375 -7.21875 L 2.484375 -6.140625 C 2.753906 -6.515625 3.101562 -6.796875 3.53125 -6.984375 C 3.957031 -7.179688 4.441406 -7.28125 4.984375 -7.28125 C 5.546875 -7.28125 6.039062 -7.164062 6.46875 -6.9375 C 6.90625 -6.707031 7.242188 -6.378906 7.484375 -5.953125 C 7.753906 -6.367188 8.128906 -6.691406 8.609375 -6.921875 C 9.097656 -7.160156 9.648438 -7.28125 10.265625 -7.28125 Z M 10.265625 -7.28125 "/></g></g></g><g fill="#000000" fill-opacity="1"><g transform="translate(65.189731, 32.438167)"><g><path d="M 10.265625 -7.28125 C 11.171875 -7.28125 11.890625 -7.015625 12.421875 -6.484375 C 12.953125 -5.960938 13.21875 -5.1875 13.21875 -4.15625 L 13.21875 0 L 11.90625 0 L 11.90625 -4 C 11.90625 -4.695312 11.742188 -5.222656 11.421875 -5.578125 C 11.097656 -5.929688 10.640625 -6.109375 10.046875 -6.109375 C 9.378906 -6.109375 8.847656 -5.898438 8.453125 -5.484375 C 8.066406 -5.078125 7.875 -4.488281 7.875 -3.71875 L 7.875 0 L 6.578125 0 L 6.578125 -4 C 6.578125 -4.695312 6.414062 -5.222656 6.09375 -5.578125 C 5.769531 -5.929688 5.304688 -6.109375 4.703125 -6.109375 C 4.046875 -6.109375 3.519531 -5.898438 3.125 -5.484375 C 2.738281 -5.078125 2.546875 -4.488281 2.546875 -3.71875 L 2.546875 0 L 1.234375 0 L 1.234375 -7.21875 L 2.484375 -7.21875 L 2.484375 -6.140625 C 2.753906 -6.515625 3.101562 -6.796875 3.53125 -6.984375 C 3.957031 -7.179688 4.441406 -7.28125 4.984375 -7.28125 C 5.546875 -7.28125 6.039062 -7.164062 6.46875 -6.9375 C 6.90625 -6.707031 7.242188 -6.378906 7.484375 -5.953125 C 7.753906 -6.367188 8.128906 -6.691406 8.609375 -6.921875 C 9.097656 -7.160156 9.648438 -7.28125 10.265625 -7.28125 Z M 10.265625 -7.28125 "/></g></g></g><g fill="#000000" fill-opacity="1"><g transform="translate(79.571362, 32.438167)"><g><path d="M 7.96875 -7.21875 L 7.96875 0 L 6.71875 0 L 6.71875 -1.09375 C 6.457031 -0.71875 6.109375 -0.425781 5.671875 -0.21875 C 5.242188 -0.0195312 4.773438 0.078125 4.265625 0.078125 C 3.304688 0.078125 2.550781 -0.1875 2 -0.71875 C 1.445312 -1.25 1.171875 -2.03125 1.171875 -3.0625 L 1.171875 -7.21875 L 2.484375 -7.21875 L 2.484375 -3.21875 C 2.484375 -2.507812 2.648438 -1.976562 2.984375 -1.625 C 3.316406 -1.269531 3.796875 -1.09375 4.421875 -1.09375 C 5.109375 -1.09375 5.648438 -1.300781 6.046875 -1.71875 C 6.453125 -2.132812 6.65625 -2.722656 6.65625 -3.484375 L 6.65625 -7.21875 Z M 5.40625 -10.03125 L 7.0625 -10.03125 L 4.78125 -8.265625 L 3.546875 -8.265625 Z M 5.40625 -10.03125 "/></g></g></g><g fill="#000000" fill-opacity="1"><g transform="translate(88.782682, 32.438167)"><g><path d="M 5.296875 -0.421875 C 5.109375 -0.253906 4.875 -0.128906 4.59375 -0.046875 C 4.3125 0.0351562 4.019531 0.078125 3.71875 0.078125 C 2.988281 0.078125 2.421875 -0.113281 2.015625 -0.5 C 1.617188 -0.894531 1.421875 -1.453125 1.421875 -2.171875 L 1.421875 -6.140625 L 0.203125 -6.140625 L 0.203125 -7.21875 L 1.421875 -7.21875 L 1.421875 -8.796875 L 2.734375 -8.796875 L 2.734375 -7.21875 L 4.796875 -7.21875 L 4.796875 -6.140625 L 2.734375 -6.140625 L 2.734375 -2.234375 C 2.734375 -1.835938 2.832031 -1.535156 3.03125 -1.328125 C 3.226562 -1.117188 3.503906 -1.015625 3.859375 -1.015625 C 4.265625 -1.015625 4.609375 -1.128906 4.890625 -1.359375 Z M 5.296875 -0.421875 "/></g></g></g><g fill="#000000" fill-opacity="1"><g transform="translate(94.4156, 32.438167)"><g><path d="M 1.234375 -7.21875 L 2.546875 -7.21875 L 2.546875 0 L 1.234375 0 Z M 1.890625 -8.59375 C 1.628906 -8.59375 1.414062 -8.675781 1.25 -8.84375 C 1.082031 -9.007812 1 -9.207031 1 -9.4375 C 1 -9.675781 1.082031 -9.878906 1.25 -10.046875 C 1.414062 -10.210938 1.628906 -10.296875 1.890625 -10.296875 C 2.140625 -10.296875 2.347656 -10.21875 2.515625 -10.0625 C 2.679688 -9.90625 2.765625 -9.707031 2.765625 -9.46875 C 2.765625 -9.226562 2.679688 -9.019531 2.515625 -8.84375 C 2.347656 -8.675781 2.140625 -8.59375 1.890625 -8.59375 Z M 1.890625 -8.59375 "/></g></g></g><g fill="#000000" fill-opacity="1"><g transform="translate(98.211699, 32.438167)"><g><path d="M 3.875 -9.109375 C 3.09375 -9.109375 2.703125 -8.6875 2.703125 -7.84375 L 2.703125 -7.21875 L 4.796875 -7.21875 L 4.796875 -6.140625 L 2.734375 -6.140625 L 2.734375 0 L 1.421875 0 L 1.421875 -6.140625 L 0.203125 -6.140625 L 0.203125 -7.21875 L 1.421875 -7.21875 L 1.421875 -7.859375 C 1.421875 -8.566406 1.628906 -9.128906 2.046875 -9.546875 C 2.472656 -9.972656 3.0625 -10.1875 3.8125 -10.1875 C 4.101562 -10.1875 4.375 -10.148438 4.625 -10.078125 C 4.882812 -10.003906 5.101562 -9.898438 5.28125 -9.765625 L 4.890625 -8.765625 C 4.585938 -8.992188 4.25 -9.109375 3.875 -9.109375 Z M 3.875 -9.109375 "/></g></g></g><g fill="#000000" fill-opacity="1"><g transform="translate(103.014649, 32.438167)"><g><path d="M 7.625 -7.21875 L 4.125 0.71875 C 3.8125 1.457031 3.445312 1.972656 3.03125 2.265625 C 2.625 2.566406 2.128906 2.71875 1.546875 2.71875 C 1.191406 2.71875 0.847656 2.660156 0.515625 2.546875 C 0.191406 2.429688 -0.078125 2.269531 -0.296875 2.0625 L 0.265625 1.078125 C 0.628906 1.429688 1.054688 1.609375 1.546875 1.609375 C 1.867188 1.609375 2.132812 1.523438 2.34375 1.359375 C 2.5625 1.191406 2.753906 0.898438 2.921875 0.484375 L 3.15625 -0.015625 L -0.03125 -7.21875 L 1.328125 -7.21875 L 3.84375 -1.4375 L 6.34375 -7.21875 Z M 7.625 -7.21875 "/></g></g></g><g fill="#000000" fill-opacity="1"><g transform="translate(71.474313, 46.095957)"><g/></g></g><g clip-path="url(#06e8962477)"><path fill="#8ac53f" d="M 17.421875 34.242188 L 12.921875 41.742188 L 8.421875 34.242188 Z M 17.421875 34.242188 " fill-opacity="1" fill-rule="nonzero"/></g></svg>