<svg id="Layer_1" data-name="Layer 1" xmlns="http://www.w3.org/2000/svg" viewBox="0 0 147.96917 48.22908"><defs><style>.cls-1{fill:#030303;}.cls-2{fill:#dcecc6;}.cls-3{fill:#bbdb8f;}.cls-4{fill:#8dc442;}</style></defs><path class="cls-1" d="M57.91641,47.51774a6.51444,6.51444,0,0,1-3.2-.78441,5.72133,5.72133,0,0,1-2.2373-2.17491,6.4327,6.4327,0,0,1,0-6.22169,5.71567,5.71567,0,0,1,2.24619-2.1749,6.95916,6.95916,0,0,1,5.66014-.33872,5.02421,5.02421,0,0,1,1.91642,1.29246l-.80222.80223a4.7559,4.7559,0,0,0-3.52977-1.41727,5.18156,5.18156,0,0,0-2.576.6507,4.77892,4.77892,0,0,0-1.81837,1.7738,5.17034,5.17034,0,0,0,0,5.054,4.76294,4.76294,0,0,0,1.81837,1.77381,5.22263,5.22263,0,0,0,2.576.64178,4.68569,4.68569,0,0,0,3.52977-1.43509l.80222.80222a5.173,5.173,0,0,1-1.92534,1.3103A6.6323,6.6323,0,0,1,57.91641,47.51774Z" transform="translate(-0.0006 -18.26928)"/><path class="cls-1" d="M68.41068,47.50882a4.66778,4.66778,0,0,1-2.33535-.5883,4.272,4.272,0,0,1-1.64011-1.63119,4.93467,4.93467,0,0,1,0-4.70637,4.21906,4.21906,0,0,1,1.64011-1.62231,4.99638,4.99638,0,0,1,4.67071,0A4.16707,4.16707,0,0,1,72.37723,40.583a5.00049,5.00049,0,0,1,0,4.70637A4.21923,4.21923,0,0,1,70.746,46.92052,4.67377,4.67377,0,0,1,68.41068,47.50882Zm0-1.07852a3.36061,3.36061,0,0,0,1.71141-.43677,2.986,2.986,0,0,0,1.18552-1.239,4.09691,4.09691,0,0,0,0-3.64565,2.99921,2.99921,0,0,0-1.18552-1.239,3.383,3.383,0,0,0-1.71141-.43676,3.42224,3.42224,0,0,0-1.72032.43676,3.1058,3.1058,0,0,0-1.19443,1.239,4.09693,4.09693,0,0,0,0,3.64566,3.09142,3.09142,0,0,0,1.19443,1.239,3.39937,3.39937,0,0,0,1.72032.43674Z" transform="translate(-0.0006 -18.26928)"/><path class="cls-1" d="M86.63218,38.38126a3.579,3.579,0,0,1,2.65622.97158,3.9036,3.9036,0,0,1,.96268,2.86126v5.20554H89.03887V42.33893a3.0371,3.0371,0,0,0-.67744-2.13034,2.43017,2.43017,0,0,0-1.8986-.73984,2.86006,2.86006,0,0,0-2.20166.86462,3.34373,3.34373,0,0,0-.80223,2.37993v4.70638H82.24671V42.33893a3.03714,3.03714,0,0,0-.67743-2.13034,2.454,2.454,0,0,0-1.91642-.73984,2.863,2.863,0,0,0-2.19275.86462A3.31765,3.31765,0,0,0,76.649,42.7133v4.70638H75.43673v-8.976H76.6044v1.64005a3.15778,3.15778,0,0,1,1.32811-1.25681,4.19043,4.19043,0,0,1,1.961-.44567,3.8191,3.8191,0,0,1,1.95208.48133,2.92132,2.92132,0,0,1,1.239,1.40835,3.44416,3.44416,0,0,1,1.41728-1.38161A4.38889,4.38889,0,0,1,86.63218,38.38126Z" transform="translate(-0.0006 -18.26928)"/><path class="cls-1" d="M104.73579,38.38126a3.579,3.579,0,0,1,2.65624.97158,3.9036,3.9036,0,0,1,.96268,2.86126v5.20554h-1.21224V42.33893a3.03715,3.03715,0,0,0-.67744-2.13034,2.43017,2.43017,0,0,0-1.8986-.73984,2.86,2.86,0,0,0-2.20165.86462,3.34378,3.34378,0,0,0-.80222,2.37993v4.70638h-1.21228V42.33893a3.03724,3.03724,0,0,0-.67742-2.13034,2.454,2.454,0,0,0-1.91642-.73984,2.863,2.863,0,0,0-2.19274.86462,3.31765,3.31765,0,0,0-.81114,2.37993v4.70638H93.54032v-8.976H94.708v1.64005a3.15778,3.15778,0,0,1,1.32811-1.25681,4.19021,4.19021,0,0,1,1.961-.44568,3.81925,3.81925,0,0,1,1.95208.48133,2.9214,2.9214,0,0,1,1.239,1.40834,3.4443,3.4443,0,0,1,1.41725-1.3816A4.389,4.389,0,0,1,104.73579,38.38126Z" transform="translate(-0.0006 -18.26928)"/><path class="cls-1" d="M119.73749,38.4437v8.976h-1.15878V45.7796a3.35856,3.35856,0,0,1-1.3192,1.27462,3.93725,3.93725,0,0,1-1.9075.4546,3.47553,3.47553,0,0,1-3.78828-3.85959V38.4437H112.776v5.08966a3.01984,3.01984,0,0,0,.69526,2.14818,2.63709,2.63709,0,0,0,1.99669.73091,2.9549,2.9549,0,0,0,2.2373-.85571,3.35565,3.35565,0,0,0,.82-2.40667V38.44369Zm-2.85235-3.512h1.61337l-2.76323,2.11251h-1.19441Z" transform="translate(-0.0006 -18.26928)"/><path class="cls-1" d="M127.86026,46.876a2.43977,2.43977,0,0,1-.8557.47242,3.40129,3.40129,0,0,1-1.04289.16045,2.62093,2.62093,0,0,1-1.94316-.68635,2.59476,2.59476,0,0,1-.68634-1.92533V39.46876h-1.59549V38.4437h1.59554v-1.961h1.21223v1.961h2.73646v1.02506h-2.73647v5.35711a1.698,1.698,0,0,0,.40111,1.22117,1.52289,1.52289,0,0,0,1.15876.41893,2.24752,2.24752,0,0,0,.722-.11588,1.8903,1.8903,0,0,0,.60611-.34762Z" transform="translate(-0.0006 -18.26928)"/><path class="cls-1" d="M130.05469,38.4437h1.21225v8.976h-1.21225Zm.624-1.961a.87237.87237,0,0,1-.63286-.24958.83188.83188,0,0,1-.25849-.615.7969.7969,0,0,1,.25849-.59721.86234.86234,0,0,1,.63286-.25849.85356.85356,0,0,1,.624.24958.77567.77567,0,0,1,.25849.5883.86233.86233,0,0,1-.25849.63286.84487.84487,0,0,1-.624.24958Z" transform="translate(-0.0006 -18.26928)"/><path class="cls-1" d="M137.62171,35.69831a1.5582,1.5582,0,0,0-1.19442.42785,1.80973,1.80973,0,0,0-.39218,1.26574v1.0518h2.76322v1.02506h-2.73651v7.95092H134.8496V39.46876h-1.59552V38.4437h1.59553V37.33842a2.644,2.644,0,0,1,.70419-1.94317,2.70111,2.70111,0,0,1,2.01448-.722,3.22032,3.22032,0,0,1,.9805.15153,2.33574,2.33574,0,0,1,.81115.41l-.41.90919A2.01,2.01,0,0,0,137.62171,35.69831Z" transform="translate(-0.0006 -18.26928)"/><path class="cls-1" d="M147.96977,38.4437l-4.48354,10.05455a4.23985,4.23985,0,0,1-1.26572,1.78273,2.79,2.79,0,0,1-1.72032.53481,3.52283,3.52283,0,0,1-1.21226-.205,2.67639,2.67639,0,0,1-.97159-.615l.56156-.90027a2.25529,2.25529,0,0,0,1.64008.6774,1.67085,1.67085,0,0,0,1.05181-.33872,3.08561,3.08561,0,0,0,.81115-1.15877l.39221-.87355L138.762,38.44368h1.26574l3.37821,7.63,3.36934-7.63Z" transform="translate(-0.0006 -18.26928)"/><polygon class="cls-2" points="41.765 12.057 20.883 0 0 12.057 0 12.057 20.883 24.113 20.883 24.113 20.883 24.115 41.765 36.171 41.765 36.17 41.765 12.057"/><polygon class="cls-3" points="0 36.172 0.001 36.172 0 36.171 0 36.172"/><polygon class="cls-3" points="20.883 24.113 0 12.057 0 36.171 20.883 24.113"/><polygon class="cls-4" points="20.883 24.113 20.883 24.113 0 36.171 0 36.171 0 36.171 0.001 36.172 20.883 48.228 20.883 48.229 41.765 36.171 41.765 36.171 20.883 24.115 20.883 24.113"/></svg>