<svg xmlns="http://www.w3.org/2000/svg" xmlns:xlink="http://www.w3.org/1999/xlink" width="300" zoomAndPan="magnify" viewBox="0 0 224.87999 74.999997" height="100" preserveAspectRatio="xMidYMid meet" version="1.0"><defs><g/><clipPath id="a5111c9c29"><path d="M 7.453125 11.4375 L 50.929688 11.4375 L 50.929688 61.664062 L 7.453125 61.664062 Z M 7.453125 11.4375 " clip-rule="nonzero"/></clipPath><clipPath id="669fd43967"><path d="M 7.519531 23.949219 L 29.261719 23.949219 L 29.261719 48.6875 L 7.519531 48.6875 Z M 7.519531 23.949219 " clip-rule="nonzero"/></clipPath><clipPath id="dd44507639"><path d="M 7 36 L 30 36 L 30 62 L 7 62 Z M 7 36 " clip-rule="nonzero"/></clipPath><clipPath id="a827a3225c"><path d="M 18.425781 30.160156 L 39.78125 42.640625 L 28.8125 61.410156 L 7.457031 48.929688 Z M 18.425781 30.160156 " clip-rule="nonzero"/></clipPath><clipPath id="156a898bc3"><path d="M 18.425781 30.160156 L 39.78125 42.640625 L 28.8125 61.410156 L 7.457031 48.929688 Z M 18.425781 30.160156 " clip-rule="nonzero"/></clipPath><clipPath id="cf663b8b3e"><path d="M 29 36 L 51 36 L 51 62 L 29 62 Z M 29 36 " clip-rule="nonzero"/></clipPath><clipPath id="0a292e6ab9"><path d="M 29.34375 36.460938 L 50.703125 48.945312 L 39.734375 67.710938 L 18.375 55.230469 Z M 29.34375 36.460938 " clip-rule="nonzero"/></clipPath><clipPath id="c19f67ad27"><path d="M 18.417969 55.160156 L 39.773438 67.640625 L 50.742188 48.875 L 29.386719 36.390625 Z M 18.417969 55.160156 " clip-rule="nonzero"/></clipPath><clipPath id="cbed86aef0"><path d="M 20.667969 47.230469 L 37.160156 47.230469 L 37.160156 61.472656 L 20.667969 61.472656 Z M 20.667969 47.230469 " clip-rule="nonzero"/></clipPath></defs><g clip-path="url(#a5111c9c29)"><path fill="#dcedc5" d="M 29.1875 61.664062 L 7.449219 49.105469 L 7.449219 23.996094 L 29.1875 11.4375 L 50.925781 23.996094 L 50.925781 49.105469 Z M 29.1875 61.664062 " fill-opacity="1" fill-rule="nonzero"/></g><g clip-path="url(#669fd43967)"><path fill="#b9dc8b" d="M 7.523438 23.949219 L 29.257812 36.320312 L 7.523438 48.6875 Z M 7.523438 23.949219 " fill-opacity="1" fill-rule="nonzero"/></g><g clip-path="url(#dd44507639)"><g clip-path="url(#a827a3225c)"><g clip-path="url(#156a898bc3)"><path fill="#8ac53f" d="M 7.457031 48.929688 L 29.101562 36.402344 L 28.8125 61.410156 Z M 7.457031 48.929688 " fill-opacity="1" fill-rule="nonzero"/></g></g></g><g clip-path="url(#cf663b8b3e)"><g clip-path="url(#0a292e6ab9)"><g clip-path="url(#c19f67ad27)"><path fill="#8ac53f" d="M 29.386719 36.390625 L 29.09375 61.398438 L 50.742188 48.875 Z M 29.386719 36.390625 " fill-opacity="1" fill-rule="nonzero"/></g></g></g><path stroke-linecap="round" transform="matrix(0.000000000000000213, -0.751434, 0.7496, 0.000000000000000212, 28.883923, 60.395776)" fill="none" stroke-linejoin="miter" d="M 0.500702 0.498785 L 31.436326 0.498785 " stroke="#8ac53f" stroke-width="1" stroke-opacity="1" stroke-miterlimit="4"/><g fill="#000000" fill-opacity="1"><g transform="translate(64.151777, 44.61361)"><g><path d="M 10.3125 0.203125 C 8.582031 0.203125 7.019531 -0.175781 5.625 -0.9375 C 4.238281 -1.707031 3.148438 -2.757812 2.359375 -4.09375 C 1.578125 -5.4375 1.1875 -6.945312 1.1875 -8.625 C 1.1875 -10.300781 1.578125 -11.804688 2.359375 -13.140625 C 3.148438 -14.484375 4.242188 -15.535156 5.640625 -16.296875 C 7.035156 -17.066406 8.597656 -17.453125 10.328125 -17.453125 C 11.679688 -17.453125 12.914062 -17.222656 14.03125 -16.765625 C 15.144531 -16.316406 16.097656 -15.648438 16.890625 -14.765625 L 15.28125 -13.21875 C 13.988281 -14.582031 12.367188 -15.265625 10.421875 -15.265625 C 9.140625 -15.265625 7.984375 -14.972656 6.953125 -14.390625 C 5.921875 -13.816406 5.113281 -13.023438 4.53125 -12.015625 C 3.945312 -11.003906 3.65625 -9.875 3.65625 -8.625 C 3.65625 -7.375 3.945312 -6.242188 4.53125 -5.234375 C 5.113281 -4.222656 5.921875 -3.429688 6.953125 -2.859375 C 7.984375 -2.285156 9.140625 -2 10.421875 -2 C 12.347656 -2 13.96875 -2.6875 15.28125 -4.0625 L 16.890625 -2.515625 C 16.097656 -1.628906 15.140625 -0.953125 14.015625 -0.484375 C 12.890625 -0.0234375 11.65625 0.203125 10.3125 0.203125 Z M 10.3125 0.203125 "/></g></g></g><g fill="#000000" fill-opacity="1"><g transform="translate(81.968776, 44.61361)"><g><path d="M 7.84375 0.140625 C 6.539062 0.140625 5.367188 -0.144531 4.328125 -0.71875 C 3.296875 -1.289062 2.488281 -2.082031 1.90625 -3.09375 C 1.320312 -4.101562 1.03125 -5.25 1.03125 -6.53125 C 1.03125 -7.8125 1.320312 -8.957031 1.90625 -9.96875 C 2.488281 -10.976562 3.296875 -11.765625 4.328125 -12.328125 C 5.367188 -12.898438 6.539062 -13.1875 7.84375 -13.1875 C 9.132812 -13.1875 10.296875 -12.898438 11.328125 -12.328125 C 12.359375 -11.765625 13.164062 -10.976562 13.75 -9.96875 C 14.332031 -8.957031 14.625 -7.8125 14.625 -6.53125 C 14.625 -5.25 14.332031 -4.101562 13.75 -3.09375 C 13.164062 -2.082031 12.359375 -1.289062 11.328125 -0.71875 C 10.296875 -0.144531 9.132812 0.140625 7.84375 0.140625 Z M 7.84375 -1.921875 C 8.675781 -1.921875 9.425781 -2.113281 10.09375 -2.5 C 10.757812 -2.882812 11.28125 -3.425781 11.65625 -4.125 C 12.039062 -4.820312 12.234375 -5.625 12.234375 -6.53125 C 12.234375 -7.4375 12.039062 -8.238281 11.65625 -8.9375 C 11.28125 -9.632812 10.757812 -10.171875 10.09375 -10.546875 C 9.425781 -10.929688 8.675781 -11.125 7.84375 -11.125 C 7 -11.125 6.242188 -10.929688 5.578125 -10.546875 C 4.921875 -10.171875 4.394531 -9.632812 4 -8.9375 C 3.613281 -8.238281 3.421875 -7.4375 3.421875 -6.53125 C 3.421875 -5.625 3.613281 -4.820312 4 -4.125 C 4.394531 -3.425781 4.921875 -2.882812 5.578125 -2.5 C 6.242188 -2.113281 7 -1.921875 7.84375 -1.921875 Z M 7.84375 -1.921875 "/></g></g></g><g fill="#000000" fill-opacity="1"><g transform="translate(97.617178, 44.61361)"><g><path d="M 18.59375 -13.1875 C 20.238281 -13.1875 21.539062 -12.707031 22.5 -11.75 C 23.457031 -10.800781 23.9375 -9.390625 23.9375 -7.515625 L 23.9375 0 L 21.578125 0 L 21.578125 -7.25 C 21.578125 -8.507812 21.285156 -9.460938 20.703125 -10.109375 C 20.117188 -10.753906 19.285156 -11.078125 18.203125 -11.078125 C 16.992188 -11.078125 16.035156 -10.703125 15.328125 -9.953125 C 14.628906 -9.203125 14.28125 -8.128906 14.28125 -6.734375 L 14.28125 0 L 11.90625 0 L 11.90625 -7.25 C 11.90625 -8.507812 11.613281 -9.460938 11.03125 -10.109375 C 10.445312 -10.753906 9.613281 -11.078125 8.53125 -11.078125 C 7.332031 -11.078125 6.378906 -10.703125 5.671875 -9.953125 C 4.960938 -9.203125 4.609375 -8.128906 4.609375 -6.734375 L 4.609375 0 L 2.25 0 L 2.25 -13.0625 L 4.515625 -13.0625 L 4.515625 -11.125 C 4.992188 -11.789062 5.617188 -12.300781 6.390625 -12.65625 C 7.160156 -13.007812 8.039062 -13.1875 9.03125 -13.1875 C 10.039062 -13.1875 10.941406 -12.976562 11.734375 -12.5625 C 12.523438 -12.15625 13.132812 -11.5625 13.5625 -10.78125 C 14.050781 -11.53125 14.734375 -12.117188 15.609375 -12.546875 C 16.492188 -12.972656 17.488281 -13.1875 18.59375 -13.1875 Z M 18.59375 -13.1875 "/></g></g></g><g fill="#000000" fill-opacity="1"><g transform="translate(123.664986, 44.61361)"><g><path d="M 18.59375 -13.1875 C 20.238281 -13.1875 21.539062 -12.707031 22.5 -11.75 C 23.457031 -10.800781 23.9375 -9.390625 23.9375 -7.515625 L 23.9375 0 L 21.578125 0 L 21.578125 -7.25 C 21.578125 -8.507812 21.285156 -9.460938 20.703125 -10.109375 C 20.117188 -10.753906 19.285156 -11.078125 18.203125 -11.078125 C 16.992188 -11.078125 16.035156 -10.703125 15.328125 -9.953125 C 14.628906 -9.203125 14.28125 -8.128906 14.28125 -6.734375 L 14.28125 0 L 11.90625 0 L 11.90625 -7.25 C 11.90625 -8.507812 11.613281 -9.460938 11.03125 -10.109375 C 10.445312 -10.753906 9.613281 -11.078125 8.53125 -11.078125 C 7.332031 -11.078125 6.378906 -10.703125 5.671875 -9.953125 C 4.960938 -9.203125 4.609375 -8.128906 4.609375 -6.734375 L 4.609375 0 L 2.25 0 L 2.25 -13.0625 L 4.515625 -13.0625 L 4.515625 -11.125 C 4.992188 -11.789062 5.617188 -12.300781 6.390625 -12.65625 C 7.160156 -13.007812 8.039062 -13.1875 9.03125 -13.1875 C 10.039062 -13.1875 10.941406 -12.976562 11.734375 -12.5625 C 12.523438 -12.15625 13.132812 -11.5625 13.5625 -10.78125 C 14.050781 -11.53125 14.734375 -12.117188 15.609375 -12.546875 C 16.492188 -12.972656 17.488281 -13.1875 18.59375 -13.1875 Z M 18.59375 -13.1875 "/></g></g></g><g fill="#000000" fill-opacity="1"><g transform="translate(149.712795, 44.61361)"><g><path d="M 14.421875 -13.0625 L 14.421875 0 L 12.1875 0 L 12.1875 -1.96875 C 11.707031 -1.300781 11.078125 -0.78125 10.296875 -0.40625 C 9.515625 -0.0390625 8.660156 0.140625 7.734375 0.140625 C 5.992188 0.140625 4.625 -0.335938 3.625 -1.296875 C 2.625 -2.253906 2.125 -3.671875 2.125 -5.546875 L 2.125 -13.0625 L 4.484375 -13.0625 L 4.484375 -5.8125 C 4.484375 -4.550781 4.785156 -3.59375 5.390625 -2.9375 C 6.003906 -2.289062 6.878906 -1.96875 8.015625 -1.96875 C 9.265625 -1.96875 10.25 -2.34375 10.96875 -3.09375 C 11.695312 -3.851562 12.0625 -4.925781 12.0625 -6.3125 L 12.0625 -13.0625 Z M 9.796875 -18.171875 L 12.796875 -18.171875 L 8.65625 -14.96875 L 6.4375 -14.96875 Z M 9.796875 -18.171875 "/></g></g></g><g fill="#000000" fill-opacity="1"><g transform="translate(166.396209, 44.61361)"><g><path d="M 9.59375 -0.765625 C 9.25 -0.472656 8.820312 -0.25 8.3125 -0.09375 C 7.800781 0.0625 7.273438 0.140625 6.734375 0.140625 C 5.421875 0.140625 4.398438 -0.207031 3.671875 -0.90625 C 2.953125 -1.613281 2.59375 -2.625 2.59375 -3.9375 L 2.59375 -11.125 L 0.375 -11.125 L 0.375 -13.0625 L 2.59375 -13.0625 L 2.59375 -15.921875 L 4.953125 -15.921875 L 4.953125 -13.0625 L 8.703125 -13.0625 L 8.703125 -11.125 L 4.953125 -11.125 L 4.953125 -4.046875 C 4.953125 -3.335938 5.128906 -2.789062 5.484375 -2.40625 C 5.835938 -2.03125 6.34375 -1.84375 7 -1.84375 C 7.726562 -1.84375 8.347656 -2.050781 8.859375 -2.46875 Z M 9.59375 -0.765625 "/></g></g></g><g fill="#000000" fill-opacity="1"><g transform="translate(176.59847, 44.61361)"><g><path d="M 2.25 -13.0625 L 4.609375 -13.0625 L 4.609375 0 L 2.25 0 Z M 3.4375 -15.578125 C 2.96875 -15.578125 2.582031 -15.722656 2.28125 -16.015625 C 1.976562 -16.316406 1.828125 -16.679688 1.828125 -17.109375 C 1.828125 -17.535156 1.976562 -17.898438 2.28125 -18.203125 C 2.582031 -18.515625 2.96875 -18.671875 3.4375 -18.671875 C 3.894531 -18.671875 4.273438 -18.523438 4.578125 -18.234375 C 4.878906 -17.941406 5.03125 -17.582031 5.03125 -17.15625 C 5.03125 -16.71875 4.878906 -16.34375 4.578125 -16.03125 C 4.273438 -15.726562 3.894531 -15.578125 3.4375 -15.578125 Z M 3.4375 -15.578125 "/></g></g></g><g fill="#000000" fill-opacity="1"><g transform="translate(183.473913, 44.61361)"><g><path d="M 7.03125 -16.5 C 5.613281 -16.5 4.90625 -15.734375 4.90625 -14.203125 L 4.90625 -13.0625 L 8.703125 -13.0625 L 8.703125 -11.125 L 4.953125 -11.125 L 4.953125 0 L 2.59375 0 L 2.59375 -11.125 L 0.375 -11.125 L 0.375 -13.0625 L 2.59375 -13.0625 L 2.59375 -14.234375 C 2.59375 -15.523438 2.96875 -16.546875 3.71875 -17.296875 C 4.476562 -18.054688 5.539062 -18.4375 6.90625 -18.4375 C 7.425781 -18.4375 7.914062 -18.367188 8.375 -18.234375 C 8.84375 -18.109375 9.238281 -17.921875 9.5625 -17.671875 L 8.859375 -15.875 C 8.304688 -16.289062 7.695312 -16.5 7.03125 -16.5 Z M 7.03125 -16.5 "/></g></g></g><g fill="#000000" fill-opacity="1"><g transform="translate(192.172948, 44.61361)"><g><path d="M 13.8125 -13.0625 L 7.46875 1.3125 C 6.90625 2.632812 6.25 3.566406 5.5 4.109375 C 4.757812 4.660156 3.863281 4.9375 2.8125 4.9375 C 2.164062 4.9375 1.539062 4.832031 0.9375 4.625 C 0.34375 4.414062 -0.148438 4.113281 -0.546875 3.71875 L 0.46875 1.953125 C 1.144531 2.585938 1.925781 2.90625 2.8125 2.90625 C 3.382812 2.90625 3.863281 2.753906 4.25 2.453125 C 4.632812 2.148438 4.984375 1.628906 5.296875 0.890625 L 5.71875 -0.03125 L -0.046875 -13.0625 L 2.421875 -13.0625 L 6.984375 -2.609375 L 11.484375 -13.0625 Z M 13.8125 -13.0625 "/></g></g></g><g fill="#000000" fill-opacity="1"><g transform="translate(135.047534, 69.350407)"><g/></g></g><g clip-path="url(#cbed86aef0)"><path fill="#8ac53f" d="M 37.160156 47.234375 L 28.914062 61.472656 L 20.667969 47.234375 Z M 37.160156 47.234375 " fill-opacity="1" fill-rule="nonzero"/></g></svg>