<svg xmlns="http://www.w3.org/2000/svg" xmlns:xlink="http://www.w3.org/1999/xlink" width="200" zoomAndPan="magnify" viewBox="0 0 150 74.999997" height="100" preserveAspectRatio="xMidYMid meet" version="1.0"><defs><g/><clipPath id="e6afdccba5"><path d="M 8.378906 12.269531 L 45.878906 12.269531 L 45.878906 55.769531 L 8.378906 55.769531 Z M 8.378906 12.269531 " clip-rule="nonzero"/></clipPath><clipPath id="25140a224c"><path d="M 27.375 23.667969 L 46.875 23.667969 L 46.875 46.167969 L 27.375 46.167969 Z M 27.375 23.667969 " clip-rule="nonzero"/></clipPath><clipPath id="55de5b783e"><path d="M 7.6875 23.667969 L 27.1875 23.667969 L 27.1875 46.167969 L 7.6875 46.167969 Z M 7.6875 23.667969 " clip-rule="nonzero"/></clipPath><clipPath id="91fe1ceafe"><path d="M 27 12 L 47 12 L 47 35 L 27 35 Z M 27 12 " clip-rule="nonzero"/></clipPath><clipPath id="54eec91f14"><path d="M 27.28125 12.269531 L 46.738281 23.574219 L 36.941406 40.433594 L 17.484375 29.128906 Z M 27.28125 12.269531 " clip-rule="nonzero"/></clipPath><clipPath id="8159be1b72"><path d="M 7 34 L 28 34 L 28 58 L 7 58 Z M 7 34 " clip-rule="nonzero"/></clipPath><clipPath id="7e957cabcc"><path d="M 17.390625 29.292969 L 36.84375 40.597656 L 27.046875 57.457031 L 7.59375 46.152344 Z M 17.390625 29.292969 " clip-rule="nonzero"/></clipPath><clipPath id="f94e123287"><path d="M 27 35 L 47 35 L 47 58 L 27 58 Z M 27 35 " clip-rule="nonzero"/></clipPath><clipPath id="21d2c5c19f"><path d="M 46.625 46.410156 L 27.117188 57.617188 L 17.402344 40.710938 L 36.910156 29.5 Z M 46.625 46.410156 " clip-rule="nonzero"/></clipPath><clipPath id="78ab5a4f6f"><path d="M 7 12 L 28 12 L 28 35 L 7 35 Z M 7 12 " clip-rule="nonzero"/></clipPath><clipPath id="23de3b0a1d"><path d="M 36.816406 29.339844 L 17.308594 40.546875 L 7.59375 23.640625 L 27.101562 12.429688 Z M 36.816406 29.339844 " clip-rule="nonzero"/></clipPath></defs><g clip-path="url(#e6afdccba5)"><path fill="#dcedc5" d="M 27.128906 55.769531 L 8.378906 44.894531 L 8.378906 23.144531 L 27.128906 12.269531 L 45.878906 23.144531 L 45.878906 44.894531 L 27.128906 55.769531 " fill-opacity="1" fill-rule="nonzero"/></g><g clip-path="url(#25140a224c)"><path fill="#dcedc5" d="M 27.375 34.917969 L 46.875 46.167969 L 46.875 23.667969 L 27.375 34.917969 " fill-opacity="1" fill-rule="nonzero"/></g><g clip-path="url(#55de5b783e)"><path fill="#b9dc8b" d="M 27.1875 34.917969 L 7.6875 46.167969 L 7.6875 23.667969 L 27.1875 34.917969 " fill-opacity="1" fill-rule="nonzero"/></g><g clip-path="url(#91fe1ceafe)"><g clip-path="url(#54eec91f14)"><path fill="#dcedc5" d="M 27.210938 34.78125 L 46.738281 23.574219 L 27.28125 12.269531 L 27.210938 34.78125 " fill-opacity="1" fill-rule="nonzero"/></g></g><g clip-path="url(#8159be1b72)"><g clip-path="url(#7e957cabcc)"><path fill="#8ac53f" d="M 27.117188 34.945312 L 27.046875 57.457031 L 7.59375 46.152344 L 27.117188 34.945312 " fill-opacity="1" fill-rule="nonzero"/></g></g><g clip-path="url(#f94e123287)"><g clip-path="url(#21d2c5c19f)"><path fill="#8ac53f" d="M 27.15625 35.105469 L 27.117188 57.617188 L 46.625 46.410156 L 27.15625 35.105469 " fill-opacity="1" fill-rule="nonzero"/></g></g><g clip-path="url(#78ab5a4f6f)"><g clip-path="url(#23de3b0a1d)"><path fill="#dcedc5" d="M 27.0625 34.941406 L 7.59375 23.640625 L 27.101562 12.429688 L 27.0625 34.941406 " fill-opacity="1" fill-rule="nonzero"/></g></g><g fill="#000000" fill-opacity="1"><g transform="translate(54.951556, 39.797532)"><g><path d="M 6.6875 0.09375 C 5.582031 0.09375 4.582031 -0.148438 3.6875 -0.640625 C 2.800781 -1.128906 2.101562 -1.804688 1.59375 -2.671875 C 1.082031 -3.546875 0.828125 -4.519531 0.828125 -5.59375 C 0.828125 -6.675781 1.082031 -7.648438 1.59375 -8.515625 C 2.101562 -9.390625 2.804688 -10.070312 3.703125 -10.5625 C 4.597656 -11.050781 5.597656 -11.296875 6.703125 -11.296875 C 7.535156 -11.296875 8.300781 -11.15625 9 -10.875 C 9.707031 -10.601562 10.304688 -10.195312 10.796875 -9.65625 L 10.046875 -8.90625 C 9.171875 -9.789062 8.066406 -10.234375 6.734375 -10.234375 C 5.847656 -10.234375 5.039062 -10.03125 4.3125 -9.625 C 3.59375 -9.226562 3.023438 -8.675781 2.609375 -7.96875 C 2.203125 -7.257812 2 -6.46875 2 -5.59375 C 2 -4.71875 2.203125 -3.925781 2.609375 -3.21875 C 3.023438 -2.519531 3.59375 -1.96875 4.3125 -1.5625 C 5.039062 -1.15625 5.847656 -0.953125 6.734375 -0.953125 C 8.078125 -0.953125 9.179688 -1.398438 10.046875 -2.296875 L 10.796875 -1.546875 C 10.304688 -1.015625 9.707031 -0.609375 9 -0.328125 C 8.289062 -0.046875 7.519531 0.09375 6.6875 0.09375 Z M 6.6875 0.09375 "/></g></g></g><g fill="#000000" fill-opacity="1"><g transform="translate(66.452787, 39.797532)"><g><path d="M 5.03125 0.078125 C 4.21875 0.078125 3.484375 -0.101562 2.828125 -0.46875 C 2.179688 -0.84375 1.671875 -1.351562 1.296875 -2 C 0.921875 -2.644531 0.734375 -3.378906 0.734375 -4.203125 C 0.734375 -5.023438 0.921875 -5.757812 1.296875 -6.40625 C 1.671875 -7.0625 2.179688 -7.570312 2.828125 -7.9375 C 3.484375 -8.300781 4.21875 -8.484375 5.03125 -8.484375 C 5.832031 -8.484375 6.554688 -8.300781 7.203125 -7.9375 C 7.859375 -7.570312 8.367188 -7.0625 8.734375 -6.40625 C 9.109375 -5.757812 9.296875 -5.023438 9.296875 -4.203125 C 9.296875 -3.378906 9.109375 -2.644531 8.734375 -2 C 8.367188 -1.351562 7.859375 -0.84375 7.203125 -0.46875 C 6.554688 -0.101562 5.832031 0.078125 5.03125 0.078125 Z M 5.03125 -0.921875 C 5.625 -0.921875 6.15625 -1.054688 6.625 -1.328125 C 7.101562 -1.609375 7.472656 -2 7.734375 -2.5 C 8.003906 -3 8.140625 -3.566406 8.140625 -4.203125 C 8.140625 -4.847656 8.003906 -5.421875 7.734375 -5.921875 C 7.472656 -6.421875 7.101562 -6.804688 6.625 -7.078125 C 6.15625 -7.347656 5.625 -7.484375 5.03125 -7.484375 C 4.425781 -7.484375 3.882812 -7.347656 3.40625 -7.078125 C 2.9375 -6.804688 2.566406 -6.421875 2.296875 -5.921875 C 2.023438 -5.421875 1.890625 -4.847656 1.890625 -4.203125 C 1.890625 -3.566406 2.023438 -3 2.296875 -2.5 C 2.566406 -2 2.9375 -1.609375 3.40625 -1.328125 C 3.882812 -1.054688 4.425781 -0.921875 5.03125 -0.921875 Z M 5.03125 -0.921875 "/></g></g></g><g fill="#000000" fill-opacity="1"><g transform="translate(76.482377, 39.797532)"><g><path d="M 12.078125 -8.484375 C 13.128906 -8.484375 13.957031 -8.175781 14.5625 -7.5625 C 15.164062 -6.957031 15.46875 -6.0625 15.46875 -4.875 L 15.46875 0 L 14.34375 0 L 14.34375 -4.765625 C 14.34375 -5.640625 14.128906 -6.304688 13.703125 -6.765625 C 13.285156 -7.222656 12.691406 -7.453125 11.921875 -7.453125 C 11.046875 -7.453125 10.359375 -7.179688 9.859375 -6.640625 C 9.359375 -6.109375 9.109375 -5.367188 9.109375 -4.421875 L 9.109375 0 L 7.96875 0 L 7.96875 -4.765625 C 7.96875 -5.640625 7.753906 -6.304688 7.328125 -6.765625 C 6.910156 -7.222656 6.3125 -7.453125 5.53125 -7.453125 C 4.664062 -7.453125 3.976562 -7.179688 3.46875 -6.640625 C 2.96875 -6.109375 2.71875 -5.367188 2.71875 -4.421875 L 2.71875 0 L 1.578125 0 L 1.578125 -8.421875 L 2.671875 -8.421875 L 2.671875 -6.875 C 2.972656 -7.382812 3.390625 -7.78125 3.921875 -8.0625 C 4.453125 -8.34375 5.066406 -8.484375 5.765625 -8.484375 C 6.460938 -8.484375 7.070312 -8.332031 7.59375 -8.03125 C 8.113281 -7.726562 8.5 -7.285156 8.75 -6.703125 C 9.0625 -7.253906 9.503906 -7.6875 10.078125 -8 C 10.660156 -8.320312 11.328125 -8.484375 12.078125 -8.484375 Z M 12.078125 -8.484375 "/></g></g></g><g fill="#000000" fill-opacity="1"><g transform="translate(93.454296, 39.797532)"><g><path d="M 12.078125 -8.484375 C 13.128906 -8.484375 13.957031 -8.175781 14.5625 -7.5625 C 15.164062 -6.957031 15.46875 -6.0625 15.46875 -4.875 L 15.46875 0 L 14.34375 0 L 14.34375 -4.765625 C 14.34375 -5.640625 14.128906 -6.304688 13.703125 -6.765625 C 13.285156 -7.222656 12.691406 -7.453125 11.921875 -7.453125 C 11.046875 -7.453125 10.359375 -7.179688 9.859375 -6.640625 C 9.359375 -6.109375 9.109375 -5.367188 9.109375 -4.421875 L 9.109375 0 L 7.96875 0 L 7.96875 -4.765625 C 7.96875 -5.640625 7.753906 -6.304688 7.328125 -6.765625 C 6.910156 -7.222656 6.3125 -7.453125 5.53125 -7.453125 C 4.664062 -7.453125 3.976562 -7.179688 3.46875 -6.640625 C 2.96875 -6.109375 2.71875 -5.367188 2.71875 -4.421875 L 2.71875 0 L 1.578125 0 L 1.578125 -8.421875 L 2.671875 -8.421875 L 2.671875 -6.875 C 2.972656 -7.382812 3.390625 -7.78125 3.921875 -8.0625 C 4.453125 -8.34375 5.066406 -8.484375 5.765625 -8.484375 C 6.460938 -8.484375 7.070312 -8.332031 7.59375 -8.03125 C 8.113281 -7.726562 8.5 -7.285156 8.75 -6.703125 C 9.0625 -7.253906 9.503906 -7.6875 10.078125 -8 C 10.660156 -8.320312 11.328125 -8.484375 12.078125 -8.484375 Z M 12.078125 -8.484375 "/></g></g></g><g fill="#000000" fill-opacity="1"><g transform="translate(110.426215, 39.797532)"><g><path d="M 9.171875 -8.421875 L 9.171875 0 L 8.078125 0 L 8.078125 -1.53125 C 7.773438 -1.019531 7.363281 -0.625 6.84375 -0.34375 C 6.320312 -0.0625 5.726562 0.078125 5.0625 0.078125 C 3.957031 0.078125 3.085938 -0.226562 2.453125 -0.84375 C 1.816406 -1.457031 1.5 -2.351562 1.5 -3.53125 L 1.5 -8.421875 L 2.640625 -8.421875 L 2.640625 -3.640625 C 2.640625 -2.753906 2.859375 -2.082031 3.296875 -1.625 C 3.734375 -1.164062 4.359375 -0.9375 5.171875 -0.9375 C 6.054688 -0.9375 6.753906 -1.207031 7.265625 -1.75 C 7.773438 -2.289062 8.03125 -3.039062 8.03125 -4 L 8.03125 -8.421875 Z M 6.5 -11.71875 L 8.015625 -11.71875 L 5.421875 -9.734375 L 4.296875 -9.734375 Z M 6.5 -11.71875 "/></g></g></g><g fill="#000000" fill-opacity="1"><g transform="translate(121.191625, 39.797532)"><g><path d="M 6.015625 -0.515625 C 5.804688 -0.316406 5.539062 -0.164062 5.21875 -0.0625 C 4.90625 0.03125 4.578125 0.078125 4.234375 0.078125 C 3.453125 0.078125 2.847656 -0.132812 2.421875 -0.5625 C 1.992188 -0.988281 1.78125 -1.59375 1.78125 -2.375 L 1.78125 -7.453125 L 0.265625 -7.453125 L 0.265625 -8.421875 L 1.78125 -8.421875 L 1.78125 -10.25 L 2.90625 -10.25 L 2.90625 -8.421875 L 5.46875 -8.421875 L 5.46875 -7.453125 L 2.90625 -7.453125 L 2.90625 -2.4375 C 2.90625 -1.9375 3.03125 -1.550781 3.28125 -1.28125 C 3.53125 -1.019531 3.894531 -0.890625 4.375 -0.890625 C 4.601562 -0.890625 4.828125 -0.925781 5.046875 -1 C 5.265625 -1.082031 5.453125 -1.191406 5.609375 -1.328125 Z M 6.015625 -0.515625 "/></g></g></g><g fill="#000000" fill-opacity="1"><g transform="translate(127.686067, 39.797532)"><g><path d="M 1.578125 -8.421875 L 2.71875 -8.421875 L 2.71875 0 L 1.578125 0 Z M 2.15625 -10.25 C 1.914062 -10.25 1.71875 -10.328125 1.5625 -10.484375 C 1.40625 -10.648438 1.328125 -10.847656 1.328125 -11.078125 C 1.328125 -11.285156 1.40625 -11.46875 1.5625 -11.625 C 1.71875 -11.789062 1.914062 -11.875 2.15625 -11.875 C 2.382812 -11.875 2.578125 -11.796875 2.734375 -11.640625 C 2.898438 -11.484375 2.984375 -11.300781 2.984375 -11.09375 C 2.984375 -10.851562 2.898438 -10.648438 2.734375 -10.484375 C 2.578125 -10.328125 2.382812 -10.25 2.15625 -10.25 Z M 2.15625 -10.25 "/></g></g></g><g fill="#000000" fill-opacity="1"><g transform="translate(131.989034, 39.797532)"><g><path d="M 4.375 -10.984375 C 3.875 -10.984375 3.5 -10.847656 3.25 -10.578125 C 3 -10.316406 2.875 -9.925781 2.875 -9.40625 L 2.875 -8.421875 L 5.46875 -8.421875 L 5.46875 -7.453125 L 2.90625 -7.453125 L 2.90625 0 L 1.78125 0 L 1.78125 -7.453125 L 0.265625 -7.453125 L 0.265625 -8.421875 L 1.78125 -8.421875 L 1.78125 -9.453125 C 1.78125 -10.222656 2 -10.832031 2.4375 -11.28125 C 2.882812 -11.726562 3.507812 -11.953125 4.3125 -11.953125 C 4.632812 -11.953125 4.945312 -11.90625 5.25 -11.8125 C 5.550781 -11.726562 5.800781 -11.597656 6 -11.421875 L 5.609375 -10.578125 C 5.285156 -10.847656 4.875 -10.984375 4.375 -10.984375 Z M 4.375 -10.984375 "/></g></g></g><g fill="#000000" fill-opacity="1"><g transform="translate(137.411736, 39.797532)"><g><path d="M 8.65625 -8.421875 L 4.453125 1.015625 C 4.109375 1.796875 3.710938 2.351562 3.265625 2.6875 C 2.816406 3.019531 2.273438 3.1875 1.640625 3.1875 C 1.242188 3.1875 0.867188 3.117188 0.515625 2.984375 C 0.160156 2.859375 -0.144531 2.671875 -0.40625 2.421875 L 0.125 1.5625 C 0.550781 1.988281 1.0625 2.203125 1.65625 2.203125 C 2.039062 2.203125 2.367188 2.09375 2.640625 1.875 C 2.921875 1.664062 3.175781 1.304688 3.40625 0.796875 L 3.78125 -0.015625 L 0.015625 -8.421875 L 1.203125 -8.421875 L 4.375 -1.265625 L 7.53125 -8.421875 Z M 8.65625 -8.421875 "/></g></g></g></svg>